<?xml version="1.0" encoding="UTF-8"?><svg xmlns="http://www.w3.org/2000/svg" xmlns:xlink="http://www.w3.org/1999/xlink" viewBox="0 0 105.28 126.76"><defs><style>.cls-1{fill:#4c2c8e;mix-blend-mode:multiply;opacity:.43;}.cls-2{fill:url(#radial-gradient-3);}.cls-2,.cls-3{stroke-miterlimit:10;}.cls-2,.cls-3,.cls-4{stroke-width:.5px;}.cls-2,.cls-3,.cls-4,.cls-5{stroke:#4c2c8e;}.cls-3{fill:url(#radial-gradient);}.cls-4{fill:url(#radial-gradient-2);stroke-linecap:round;stroke-linejoin:round;}.cls-6{fill:none;isolation:isolate;}.cls-5{fill:#8b6fdd;}</style><radialGradient id="radial-gradient" cx="9.05" cy="8.49" fx="9.05" fy="8.49" r="8.24" gradientUnits="userSpaceOnUse"><stop offset=".05" stop-color="#cabae9"/><stop offset=".41" stop-color="#c8b7e8"/><stop offset=".6" stop-color="#c1b0e7"/><stop offset=".74" stop-color="#b6a2e5"/><stop offset=".86" stop-color="#a68fe2"/><stop offset=".97" stop-color="#9277de"/><stop offset="1" stop-color="#8b6fdd"/><stop offset="1" stop-color="#9176de"/><stop offset="1" stop-color="#a18ae1"/><stop offset="1" stop-color="#bdaae6"/><stop offset="1" stop-color="#cebeea"/></radialGradient><radialGradient id="radial-gradient-2" cx="23.62" cy="24.87" fx="23.62" fy="24.87" r="10.32" gradientTransform="translate(-3.11 11.21) rotate(-11.05) scale(1 .74)" gradientUnits="userSpaceOnUse"><stop offset=".05" stop-color="#cabae9"/><stop offset=".31" stop-color="#af9ae3"/><stop offset=".56" stop-color="#9b82e0"/><stop offset=".8" stop-color="#8f74dd"/><stop offset="1" stop-color="#8b6fdd"/><stop offset="1" stop-color="#9176de"/><stop offset="1" stop-color="#a18ae1"/><stop offset="1" stop-color="#bdaae6"/><stop offset="1" stop-color="#cebeea"/></radialGradient><radialGradient id="radial-gradient-3" cx="52.64" cy="74.12" fx="66.99" fy="28.94" r="52.39" gradientTransform="translate(0 .53)" gradientUnits="userSpaceOnUse"><stop offset=".08" stop-color="#cabae9"/><stop offset=".24" stop-color="#baa7e6"/><stop offset=".55" stop-color="#a088e1"/><stop offset=".81" stop-color="#9075de"/><stop offset="1" stop-color="#8b6fdd"/><stop offset="1" stop-color="#9176de"/><stop offset="1" stop-color="#a18ae1"/><stop offset="1" stop-color="#bdaae6"/><stop offset="1" stop-color="#cebeea"/></radialGradient></defs><g class="cls-6"><g id="Layer_2"><g id="Layer_1-2"><circle class="cls-3" cx="9.05" cy="8.49" r="8.24"/><line class="cls-5" x1="25.78" y1="29.15" x2="14.58" y2="14.59"/><path class="cls-4" d="m19.26,33.75l-6.12-6.8c-.61-.67-.68-1.66-.2-2.42.62-.97,1.63-2.34,3.11-3.7,2.58-2.38,6.58-4.74,12.33-4.84.7-.01,1.35.38,1.71.99l4.53,7.69"/><circle class="cls-2" cx="52.64" cy="74.12" r="52.39"/><path class="cls-1" d="m86.9,108.69c.7-.04,1.04.84.5,1.29-7.24,5.87-36.44,26.24-64.88,2.57C-5.55,89.2,5.55,59.58,8.96,52.13c.28-.62,1.18-.54,1.36.11,2.79,10.4,19.03,59.55,76.58,56.45Z"/><path class="cls-1" d="m16.05,20.82l7.58,9.67-4.37,3.25-6.5-7.4c-.34-.38-.35-.95-.03-1.35l3.33-4.18Z"/><polygon class="cls-1" points="19.02 18.55 26.66 28.62 24.74 29.77 17.29 20.13 19.02 18.55"/></g></g></g></svg>